<svg xmlns="http://www.w3.org/2000/svg" xmlns:xlink="http://www.w3.org/1999/xlink" viewBox="0 0 100 125" version="1.1" x="0px" y="0px"><title>back</title><desc>Created with Sketch.</desc><g stroke="none" stroke-width="1" fill="none" fill-rule="evenodd"><g fill="#000000"><path d="M34.3918131,49.0259671 C33.3924809,50.0099983 33.3876591,50.0099983 34.3896914,50.9933875 C35.3917236,51.9767767 76.0557464,92.5873624 76.0557464,92.5873624 C77.7524878,94.2841039 77.7684915,97.0190615 76.0651509,98.7224021 C74.3736035,100.41395 71.6580083,100.440895 69.9301112,98.7129976 L24.5874817,53.3703681 C23.7373295,52.4810791 23,51.3634604 23,50.0099998 C23,48.6753554 23.6817875,47.5222168 24.5472572,46.6831438 L69.9503959,1.28000513 C71.6474745,-0.417073458 74.3829756,-0.433080349 76.0866547,1.27059872 C77.7785382,2.96248229 77.8054887,5.67861707 76.0772483,7.40685752 C62.1821032,21.2798941 35.3911454,48.041936 34.3918131,49.0259671 Z"/></g></g><text x="0" y="115" fill="#ff0000" font-size="10px" font-weight="bold" font-family="'Helvetica Neue', Helvetica, Arial-Unicode, Arial, Sans-serif">Created by Rauan</text><text x="0" y="120" fill="#111111" font-size="5px" font-weight="bold" font-family="'Helvetica Neue', Helvetica, Arial-Unicode, Arial, Sans-serif">from the Noun Project</text></svg>