<svg xmlns:dc="http://purl.org/dc/elements/1.1/" xmlns:cc="http://creativecommons.org/ns#" xmlns:rdf="http://www.w3.org/1999/02/22-rdf-syntax-ns#" xmlns:svg="http://www.w3.org/2000/svg" xmlns="http://www.w3.org/2000/svg" xmlns:sodipodi="http://sodipodi.sourceforge.net/DTD/sodipodi-0.dtd" xmlns:inkscape="http://www.inkscape.org/namespaces/inkscape" version="1.1" x="0px" y="0px" viewBox="0 0 100 125"><g transform="translate(0,-952.36218)"><path style="text-indent:0;text-transform:none;direction:ltr;block-progression:tb;baseline-shift:baseline;color:#000000;enable-background:accumulate;" d="m 7.6718507,993.76196 c -1.16854,1.45314 -0.51388,3.96469 1.2153498,4.66248 l 32.0628795,12.97106 12.9489,32.0408 c 0.44573,1.0918 1.58645,1.8616 2.76579,1.8663 1.17932,0.01 2.32615,-0.7559 2.78057,-1.8442 11.19317,-26.4715 21.83852,-53.19234 33.12354,-79.61589 0.58962,-1.08402 0.41678,-2.53232 -0.41138,-3.44715 -0.82815,-0.91484 -2.25215,-1.23049 -3.38932,-0.7513 L 8.8651205,992.87808 c -0.54962,0.18299 -1.1321101,0.74368 -1.1932498,0.88387 z M 17.8807,995.61813 77.12299,970.97987 42.51895,1005.584 z m 28.88089,14.20847 34.55985,-34.5599 -24.61615,59.1761 z" fill="#000000" fill-opacity="1" stroke="none" marker="none" visibility="visible" display="inline" overflow="visible"/></g><text x="0" y="115" fill="#000000" font-size="5px" font-weight="bold" font-family="'Helvetica Neue', Helvetica, Arial-Unicode, Arial, Sans-serif">Created by Aya Sofya</text><text x="0" y="120" fill="#000000" font-size="5px" font-weight="bold" font-family="'Helvetica Neue', Helvetica, Arial-Unicode, Arial, Sans-serif">from the Noun Project</text></svg>